<?xml version="1.0" encoding="UTF-8"?>
<svg width="529px" height="108px" viewBox="0 0 529 108" version="1.1" xmlns="http://www.w3.org/2000/svg" xmlns:xlink="http://www.w3.org/1999/xlink">
    <title>Group 10</title>
    <g id="Stack" stroke="none" stroke-width="1" fill="none" fill-rule="evenodd">
        <g id="Group-10" fill-rule="nonzero">
            <g id="Group-4-Copy-4">
                <ellipse id="Oval-Copy-19" fill="#FFCC00" cx="48.5" cy="16.5" rx="17.5" ry="16.5"></ellipse>
                <ellipse id="Oval-Copy-20" fill="#EA4335" cx="48.5" cy="75.5" rx="17.5" ry="16.5"></ellipse>
                <ellipse id="Oval-Copy-21" fill="#00D490" cx="17.5" cy="44.5" rx="17.5" ry="16.5"></ellipse>
                <ellipse id="Oval-Copy-22" fill="#5F4CFE" cx="77.5" cy="44.5" rx="17.5" ry="16.5"></ellipse>
            </g>
            <g id="Joystick-Copy" transform="translate(126, 10.5)" fill="#333333">
                <path d="M22.1,75 C16.3666667,75 11.6416667,73.5333333 7.925,70.6 C4.20833333,67.6666667 1.56666667,63.7 0,58.7 L13.4,55.5 C13.7,57.3333333 14.6666667,58.925 16.3,60.275 C17.9333333,61.625 19.6666667,62.3 21.5,62.3 C22.7666667,62.3 24.125,61.95 25.575,61.25 C27.025,60.55 28.0666667,59.4333333 28.7,57.9 C29.1,56.9333333 29.3333333,55.75 29.4,54.35 C29.4666667,52.95 29.5,51.3333333 29.5,49.5 L29.5,1.5 L43.3,1.5 L43.3,49.5 C43.3,51.8 43.2916667,53.8 43.275,55.5 C43.2583333,57.2 43.0916667,58.7916667 42.775,60.275 C42.4583333,61.7583333 41.8333333,63.3 40.9,64.9 C38.8666667,68.4333333 36.2166667,71 32.95,72.6 C29.6833333,74.2 26.0666667,75 22.1,75 Z" id="Path"></path>
                <path d="M81.0126984,75 C75.5793651,75 70.8126984,73.7833333 66.7126984,71.35 C62.6126984,68.9166667 59.4210317,65.5583333 57.1376984,61.275 C54.8543651,56.9916667 53.7126984,52.0666667 53.7126984,46.5 C53.7126984,40.8666667 54.8793651,35.9083333 57.2126984,31.625 C59.5460317,27.3416667 62.7626984,24 66.8626984,21.6 C70.9626984,19.2 75.6793651,18 81.0126984,18 C86.4460317,18 91.2210317,19.2166667 95.3376984,21.65 C99.4543651,24.0833333 102.662698,27.4416667 104.962698,31.725 C107.262698,36.0083333 108.412698,40.9333333 108.412698,46.5 C108.412698,52.1 107.254365,57.0416667 104.937698,61.325 C102.621032,65.6083333 99.4043651,68.9583333 95.2876984,71.375 C91.1710317,73.7916667 86.4126984,75 81.0126984,75 Z M81.0126984,62.3 C85.3793651,62.3 88.6376984,60.825 90.7876984,57.875 C92.9376984,54.925 94.0126984,51.1333333 94.0126984,46.5 C94.0126984,41.7 92.9210317,37.8666667 90.7376984,35 C88.5543651,32.1333333 85.3126984,30.7 81.0126984,30.7 C78.0460317,30.7 75.6126984,31.3666667 73.7126984,32.7 C71.8126984,34.0333333 70.4043651,35.8833333 69.4876984,38.25 C68.5710317,40.6166667 68.1126984,43.3666667 68.1126984,46.5 C68.1126984,51.3333333 69.2043651,55.175 71.3876984,58.025 C73.5710317,60.875 76.7793651,62.3 81.0126984,62.3 Z" id="Shape"></path>
                <polygon id="Path" points="122.725397 97.5 133.125397 68.9 133.325397 77.3 109.825397 19.5 123.925397 19.5 139.725397 60.4 136.525397 60.4 152.225397 19.5 165.825397 19.5 135.325397 97.5"></polygon>
                <path d="M192.338095,75 C185.538095,75 180.046429,73.4583333 175.863095,70.375 C171.679762,67.2916667 169.138095,62.9333333 168.238095,57.3 L182.138095,55.2 C182.704762,57.7333333 183.963095,59.7166667 185.913095,61.15 C187.863095,62.5833333 190.338095,63.3 193.338095,63.3 C195.804762,63.3 197.704762,62.825 199.038095,61.875 C200.371429,60.925 201.038095,59.6 201.038095,57.9 C201.038095,56.8333333 200.771429,55.975 200.238095,55.325 C199.704762,54.675 198.513095,54.0333333 196.663095,53.4 C194.813095,52.7666667 191.938095,51.9333333 188.038095,50.9 C183.638095,49.7666667 180.121429,48.5 177.488095,47.1 C174.854762,45.7 172.954762,44.025 171.788095,42.075 C170.621429,40.125 170.038095,37.7666667 170.038095,35 C170.038095,31.5333333 170.921429,28.525 172.688095,25.975 C174.454762,23.425 176.946429,21.4583333 180.163095,20.075 C183.379762,18.6916667 187.171429,18 191.538095,18 C195.771429,18 199.521429,18.65 202.788095,19.95 C206.054762,21.25 208.696429,23.1 210.713095,25.5 C212.729762,27.9 213.971429,30.7333333 214.438095,34 L200.538095,36.5 C200.304762,34.5 199.438095,32.9166667 197.938095,31.75 C196.438095,30.5833333 194.404762,29.9 191.838095,29.7 C189.338095,29.5333333 187.329762,29.8666667 185.813095,30.7 C184.296429,31.5333333 183.538095,32.7333333 183.538095,34.3 C183.538095,35.2333333 183.863095,36.0166667 184.513095,36.65 C185.163095,37.2833333 186.513095,37.9333333 188.563095,38.6 C190.613095,39.2666667 193.738095,40.1333333 197.938095,41.2 C202.038095,42.2666667 205.329762,43.5083333 207.813095,44.925 C210.296429,46.3416667 212.104762,48.0416667 213.238095,50.025 C214.371429,52.0083333 214.938095,54.4 214.938095,57.2 C214.938095,62.7333333 212.938095,67.0833333 208.938095,70.25 C204.938095,73.4166667 199.404762,75 192.338095,75 Z" id="Path"></path>
                <path d="M256.750794,73.5 C253.01746,74.2 249.359127,74.5083333 245.775794,74.425 C242.19246,74.3416667 238.99246,73.7083333 236.175794,72.525 C233.359127,71.3416667 231.21746,69.4333333 229.750794,66.8 C228.41746,64.3333333 227.71746,61.825 227.650794,59.275 C227.584127,56.725 227.550794,53.8333333 227.550794,50.6 L227.550794,4.5 L241.150794,4.5 L241.150794,49.8 C241.150794,51.9 241.175794,53.7916667 241.225794,55.475 C241.275794,57.1583333 241.61746,58.5 242.250794,59.5 C243.450794,61.4 245.36746,62.4333333 248.000794,62.6 C250.634127,62.7666667 253.550794,62.6333333 256.750794,62.2 L256.750794,73.5 Z M218.350794,30 L218.350794,19.5 L256.750794,19.5 L256.750794,30 L218.350794,30 Z" id="Shape"></path>
                <path d="M268.163492,12 L268.163492,0 L281.763492,0 L281.763492,12 L268.163492,12 Z M268.163492,73.5 L268.163492,19.5 L281.763492,19.5 L281.763492,73.5 L268.163492,73.5 Z" id="Shape"></path>
                <path d="M318.97619,75 C313.37619,75 308.57619,73.75 304.57619,71.25 C300.57619,68.75 297.509524,65.35 295.37619,61.05 C293.242857,56.75 292.17619,51.9 292.17619,46.5 C292.17619,41.0333333 293.284524,36.15 295.50119,31.85 C297.717857,27.55 300.842857,24.1666667 304.87619,21.7 C308.909524,19.2333333 313.67619,18 319.17619,18 C325.542857,18 330.884524,19.6083333 335.20119,22.825 C339.517857,26.0416667 342.27619,30.4333333 343.47619,36 L329.87619,39.6 C329.07619,36.8 327.684524,34.6166667 325.70119,33.05 C323.717857,31.4833333 321.47619,30.7 318.97619,30.7 C316.109524,30.7 313.759524,31.3916667 311.92619,32.775 C310.092857,34.1583333 308.742857,36.0416667 307.87619,38.425 C307.009524,40.8083333 306.57619,43.5 306.57619,46.5 C306.57619,51.2 307.617857,55.0083333 309.70119,57.925 C311.784524,60.8416667 314.87619,62.3 318.97619,62.3 C322.042857,62.3 324.37619,61.6 325.97619,60.2 C327.57619,58.8 328.77619,56.8 329.57619,54.2 L343.47619,57.1 C341.942857,62.8333333 339.042857,67.25 334.77619,70.35 C330.509524,73.45 325.242857,75 318.97619,75 Z" id="Path"></path>
                <polygon id="Path" points="351.788889 73.5 351.888889 1.5 365.688889 1.5 365.688889 45.5 383.988889 19.5 400.788889 19.5 381.288889 46.5 402.088889 73.5 384.388889 73.5 365.688889 47.5 365.688889 73.5"></polygon>
            </g>
        </g>
    </g>
</svg>