<?xml version="1.0" encoding="UTF-8"?>
<svg width="297px" height="48px" viewBox="0 0 297 48" version="1.1" xmlns="http://www.w3.org/2000/svg" xmlns:xlink="http://www.w3.org/1999/xlink">
    <title>Group 2</title>
    <g id="Page-1" stroke="none" stroke-width="1" fill="none" fill-rule="evenodd">
        <g id="Group-2" fill-rule="nonzero">
            <g id="solotrack" transform="translate(76.095, 5.04)" fill="#FFFFFF">
                <path d="M11.232,38.636 C6.69066667,38.636 2.94666667,37.0586667 0,33.904 L4.732,29.588 C6.708,31.8066667 8.82266667,32.916 11.076,32.916 C12.2893333,32.916 13.2166667,32.6473333 13.858,32.11 C14.4993333,31.5726667 14.82,30.9053333 14.82,30.108 C14.82,29.6226667 14.7073333,29.2066667 14.482,28.86 C14.2566667,28.5133333 13.7886667,28.184 13.078,27.872 C12.3673333,27.56 11.3013333,27.248 9.88,26.936 C7.45333333,26.3466667 5.65066667,25.6186667 4.472,24.752 C3.29333333,23.8853333 2.51333333,22.9146667 2.132,21.84 C1.75066667,20.7653333 1.56,19.656 1.56,18.512 C1.56,16.1546667 2.45266667,14.1873333 4.238,12.61 C6.02333333,11.0326667 8.49333333,10.244 11.648,10.244 C13.832,10.244 15.704,10.5733333 17.264,11.232 C18.824,11.8906667 20.2973333,13.1213333 21.684,14.924 L16.588,18.824 C15.9293333,17.784 15.1926667,17.0386667 14.378,16.588 C13.5633333,16.1373333 12.7053333,15.912 11.804,15.912 C10.8333333,15.912 10.0273333,16.1026667 9.386,16.484 C8.74466667,16.8653333 8.424,17.472 8.424,18.304 C8.424,18.7546667 8.632,19.1966667 9.048,19.63 C9.464,20.0633333 10.4693333,20.488 12.064,20.904 C14.6986667,21.5626667 16.7093333,22.334 18.096,23.218 C19.4826667,24.102 20.436,25.0986667 20.956,26.208 C21.476,27.3173333 21.736,28.548 21.736,29.9 C21.736,31.564 21.2766667,33.0546667 20.358,34.372 C19.4393333,35.6893333 18.1913333,36.7293333 16.614,37.492 C15.0366667,38.2546667 13.2426667,38.636 11.232,38.636 Z" id="Path"></path>
                <path d="M38.4588986,38.636 C35.6855652,38.636 33.2068986,37.9946667 31.0228986,36.712 C28.8388986,35.4293333 27.1315652,33.722 25.9008986,31.59 C24.6702319,29.458 24.0548986,27.092 24.0548986,24.492 C24.0548986,21.892 24.6702319,19.5173333 25.9008986,17.368 C27.1315652,15.2186667 28.8388986,13.5026667 31.0228986,12.22 C33.2068986,10.9373333 35.6855652,10.296 38.4588986,10.296 C41.2668986,10.296 43.7542319,10.9373333 45.9208986,12.22 C48.0875652,13.5026667 49.7862319,15.2186667 51.0168986,17.368 C52.2475652,19.5173333 52.8628986,21.892 52.8628986,24.492 C52.8628986,27.092 52.2475652,29.458 51.0168986,31.59 C49.7862319,33.722 48.0875652,35.4293333 45.9208986,36.712 C43.7542319,37.9946667 41.2668986,38.636 38.4588986,38.636 Z M38.4588986,32.24 C39.9495652,32.24 41.2495652,31.8846667 42.3588986,31.174 C43.4682319,30.4633333 44.3262319,29.5186667 44.9328986,28.34 C45.5395652,27.1613333 45.8428986,25.8786667 45.8428986,24.492 C45.8428986,23.0706667 45.5395652,21.7706667 44.9328986,20.592 C44.3262319,19.4133333 43.4682319,18.4686667 42.3588986,17.758 C41.2495652,17.0473333 39.9495652,16.692 38.4588986,16.692 C36.9682319,16.692 35.6682319,17.0473333 34.5588986,17.758 C33.4495652,18.4686667 32.5915652,19.4133333 31.9848986,20.592 C31.3782319,21.7706667 31.0748986,23.0706667 31.0748986,24.492 C31.0748986,25.8786667 31.3782319,27.1613333 31.9848986,28.34 C32.5915652,29.5186667 33.4495652,30.4633333 34.5588986,31.174 C35.6682319,31.8846667 36.9682319,32.24 38.4588986,32.24 Z" id="Shape"></path>
                <polygon id="Path" points="56.5857971 37.96 56.5857971 0 63.6057971 0 63.6057971 37.96"></polygon>
                <path d="M81.7326957,38.636 C78.9593623,38.636 76.4806957,37.9946667 74.2966957,36.712 C72.1126957,35.4293333 70.4053623,33.722 69.1746957,31.59 C67.944029,29.458 67.3286957,27.092 67.3286957,24.492 C67.3286957,21.892 67.944029,19.5173333 69.1746957,17.368 C70.4053623,15.2186667 72.1126957,13.5026667 74.2966957,12.22 C76.4806957,10.9373333 78.9593623,10.296 81.7326957,10.296 C84.5406957,10.296 87.028029,10.9373333 89.1946957,12.22 C91.3613623,13.5026667 93.060029,15.2186667 94.2906957,17.368 C95.5213623,19.5173333 96.1366957,21.892 96.1366957,24.492 C96.1366957,27.092 95.5213623,29.458 94.2906957,31.59 C93.060029,33.722 91.3613623,35.4293333 89.1946957,36.712 C87.028029,37.9946667 84.5406957,38.636 81.7326957,38.636 Z M81.7326957,32.24 C83.2233623,32.24 84.5233623,31.8846667 85.6326957,31.174 C86.742029,30.4633333 87.600029,29.5186667 88.2066957,28.34 C88.8133623,27.1613333 89.1166957,25.8786667 89.1166957,24.492 C89.1166957,23.0706667 88.8133623,21.7706667 88.2066957,20.592 C87.600029,19.4133333 86.742029,18.4686667 85.6326957,17.758 C84.5233623,17.0473333 83.2233623,16.692 81.7326957,16.692 C80.242029,16.692 78.942029,17.0473333 77.8326957,17.758 C76.7233623,18.4686667 75.8653623,19.4133333 75.2586957,20.592 C74.652029,21.7706667 74.3486957,23.0706667 74.3486957,24.492 C74.3486957,25.8786667 74.652029,27.1613333 75.2586957,28.34 C75.8653623,29.5186667 76.7233623,30.4633333 77.8326957,31.174 C78.942029,31.8846667 80.242029,32.24 81.7326957,32.24 Z" id="Shape"></path>
                <path d="M108.647594,37.96 C105.978261,37.96 103.932928,37.3013333 102.511594,35.984 C101.090261,34.6666667 100.379594,32.5346667 100.379594,29.588 L100.379594,16.9 L96.5835942,16.9 L96.5835942,10.92 L100.379594,10.92 L100.379594,5.46 L107.399594,4.732 L107.399594,10.92 L113.119594,10.92 L113.119594,16.9 L107.399594,16.9 L107.399594,29.224 C107.399594,30.888 108.127594,31.72 109.583594,31.72 L112.495594,31.72 L112.495594,37.96 L108.647594,37.96 Z" id="Path"></path>
                <path d="M116.062493,37.96 L116.062493,10.92 L122.874493,10.92 L122.874493,16.068 C123.325159,14.1266667 124.243826,12.6446667 125.630493,11.622 C127.017159,10.5993333 128.889159,10.1573333 131.246493,10.296 L131.246493,16.9 L130.258493,16.9 C128.247826,16.9 126.549159,17.5413333 125.162493,18.824 C123.775826,20.1066667 123.082493,21.8746667 123.082493,24.128 L123.082493,37.96 L116.062493,37.96 Z" id="Path"></path>
                <path d="M145.213391,38.636 C142.752058,38.636 140.507391,38.0033333 138.479391,36.738 C136.451391,35.4726667 134.839391,33.774 133.643391,31.642 C132.447391,29.51 131.849391,27.144 131.849391,24.544 C131.849391,22.6026667 132.196058,20.774 132.889391,19.058 C133.582725,17.342 134.536058,15.834 135.749391,14.534 C136.962725,13.234 138.375391,12.2113333 139.987391,11.466 C141.599391,10.7206667 143.341391,10.348 145.213391,10.348 C147.570725,10.348 149.408058,10.79 150.725391,11.674 C152.042725,12.558 153.065391,13.728 153.793391,15.184 L153.793391,10.92 L160.761391,10.92 L160.761391,37.96 L153.949391,37.96 L153.949391,33.54 C153.221391,35.0653333 152.190058,36.296 150.855391,37.232 C149.520725,38.168 147.640058,38.636 145.213391,38.636 Z M146.357391,32.292 C147.917391,32.292 149.260725,31.9366667 150.387391,31.226 C151.514058,30.5153333 152.389391,29.5706667 153.013391,28.392 C153.637391,27.2133333 153.949391,25.9306667 153.949391,24.544 C153.949391,23.1226667 153.637391,21.8226667 153.013391,20.644 C152.389391,19.4653333 151.514058,18.512 150.387391,17.784 C149.260725,17.056 147.917391,16.692 146.357391,16.692 C144.866725,16.692 143.558058,17.0473333 142.431391,17.758 C141.304725,18.4686667 140.429391,19.4133333 139.805391,20.592 C139.181391,21.7706667 138.869391,23.0706667 138.869391,24.492 C138.869391,25.844 139.181391,27.118 139.805391,28.314 C140.429391,29.51 141.304725,30.472 142.431391,31.2 C143.558058,31.928 144.866725,32.292 146.357391,32.292 Z" id="Shape"></path>
                <path d="M178.42029,38.636 C176.478957,38.636 174.667623,38.272 172.98629,37.544 C171.304957,36.816 169.822957,35.802 168.54029,34.502 C167.257623,33.202 166.260957,31.694 165.55029,29.978 C164.839623,28.262 164.48429,26.416 164.48429,24.44 C164.48429,21.8053333 165.099623,19.422 166.33029,17.29 C167.560957,15.158 169.259623,13.4506667 171.42629,12.168 C173.592957,10.8853333 176.045623,10.244 178.78429,10.244 C181.245623,10.2093333 183.446957,10.6426667 185.38829,11.544 C187.329623,12.4453333 188.87229,13.6933333 190.01629,15.288 L184.60829,19.708 C183.98429,18.772 183.17829,18.0266667 182.19029,17.472 C181.20229,16.9173333 180.101623,16.64 178.88829,16.64 C177.397623,16.64 176.097623,16.9953333 174.98829,17.706 C173.878957,18.4166667 173.020957,19.3613333 172.41429,20.54 C171.807623,21.7186667 171.50429,23.0186667 171.50429,24.44 C171.50429,25.8266667 171.824957,27.118 172.46629,28.314 C173.107623,29.51 173.991623,30.4633333 175.11829,31.174 C176.244957,31.8846667 177.553623,32.24 179.04429,32.24 C180.39629,32.24 181.54029,31.9366667 182.47629,31.33 C183.41229,30.7233333 184.226957,29.952 184.92029,29.016 L190.01629,33.436 C188.733623,35.0653333 187.147623,36.3393333 185.25829,37.258 C183.368957,38.1766667 181.089623,38.636 178.42029,38.636 Z" id="Path"></path>
                <polygon id="Path" points="193.375188 37.96 193.375188 0 200.395188 0 200.395188 21.84 210.535188 10.92 220.519188 10.92 207.779188 23.504 220.571188 37.96 211.263188 37.96 200.395188 25.116 200.395188 37.96"></polygon>
            </g>
            <path d="M25.7531261,28 L16.2468753,28 C7.27593756,28 0,35.461539 0,44.6634604 C0,46.5096154 1.4550004,48 3.24937534,48 L38.7468739,48 C40.546875,48 42,46.5096154 42,44.6634604 C42,35.461539 34.7249994,28 25.7531261,28 Z" id="Path" fill="#4285F4"></path>
            <path d="M21,24 C27.6281261,24 33,18.6271877 33,12 C33,5.37281227 27.6281261,0 21,0 C14.3718753,0 9,5.37281227 9,12 C9,18.6271877 14.3718753,24 21,24 Z" id="Path" fill="#4285F4"></path>
            <path d="M59.2615642,12.6002772 C58.328643,11.7565435 56.8665281,11.8078235 56.0002365,12.7189645 L47.6305822,21.507856 L43.9394713,17.908863 C43.0380868,17.0299737 41.5780845,17.0299737 40.6762188,17.908863 C39.7743531,18.7877523 39.7748343,20.2113183 40.6762188,21.0906768 L46.0604889,26.3405755 C46.4931535,26.7656295 47.0796549,27 47.6949995,27 L47.7370641,27 C48.3650051,26.9882815 48.9600598,26.7289748 49.3869557,26.2807641 L59.3863144,15.7809667 C60.2518841,14.8689846 60.1941979,13.4440109 59.2615642,12.6002772 Z" id="Path" fill="#00D490"></path>
        </g>
    </g>
</svg>